<mxfile host="app.diagrams.net" agent="Mozilla/5.0 (X11; Ubuntu; Linux x86_64; rv:130.0) Gecko/20100101 Firefox/130.0" version="24.7.7">
  <diagram name="Page-1" id="dN3LzOlOqbhGuJZKb9In">
    <mxGraphModel dx="997" dy="1182" grid="1" gridSize="10" guides="1" tooltips="1" connect="1" arrows="1" fold="1" page="1" pageScale="1" pageWidth="850" pageHeight="1100" math="0" shadow="0">
      <root>
        <mxCell id="0" />
        <mxCell id="1" parent="0" />
        <mxCell id="Dw3AAeXeD5o4Yu95Zc_J-1" value="Users Google Sheet Signups" style="swimlane;fontStyle=0;childLayout=stackLayout;horizontal=1;startSize=30;horizontalStack=0;resizeParent=1;resizeParentMax=0;resizeLast=0;collapsible=1;marginBottom=0;whiteSpace=wrap;html=1;" vertex="1" parent="1">
          <mxGeometry x="160" y="400" width="140" height="90" as="geometry" />
        </mxCell>
        <mxCell id="Dw3AAeXeD5o4Yu95Zc_J-2" value="Names&lt;span style=&quot;white-space: pre;&quot;&gt;&#x9;&lt;/span&gt;" style="text;strokeColor=none;fillColor=none;align=left;verticalAlign=middle;spacingLeft=4;spacingRight=4;overflow=hidden;points=[[0,0.5],[1,0.5]];portConstraint=eastwest;rotatable=0;whiteSpace=wrap;html=1;" vertex="1" parent="Dw3AAeXeD5o4Yu95Zc_J-1">
          <mxGeometry y="30" width="140" height="30" as="geometry" />
        </mxCell>
        <mxCell id="Dw3AAeXeD5o4Yu95Zc_J-3" value="UserFiles" style="text;strokeColor=none;fillColor=none;align=left;verticalAlign=middle;spacingLeft=4;spacingRight=4;overflow=hidden;points=[[0,0.5],[1,0.5]];portConstraint=eastwest;rotatable=0;whiteSpace=wrap;html=1;" vertex="1" parent="Dw3AAeXeD5o4Yu95Zc_J-1">
          <mxGeometry y="60" width="140" height="30" as="geometry" />
        </mxCell>
        <mxCell id="Dw3AAeXeD5o4Yu95Zc_J-6" style="edgeStyle=orthogonalEdgeStyle;rounded=0;orthogonalLoop=1;jettySize=auto;html=1;" edge="1" parent="1" source="Dw3AAeXeD5o4Yu95Zc_J-5" target="Dw3AAeXeD5o4Yu95Zc_J-1">
          <mxGeometry relative="1" as="geometry" />
        </mxCell>
        <mxCell id="Dw3AAeXeD5o4Yu95Zc_J-21" style="edgeStyle=orthogonalEdgeStyle;rounded=0;orthogonalLoop=1;jettySize=auto;html=1;entryX=0.5;entryY=0;entryDx=0;entryDy=0;" edge="1" parent="1" source="Dw3AAeXeD5o4Yu95Zc_J-5" target="Dw3AAeXeD5o4Yu95Zc_J-18">
          <mxGeometry relative="1" as="geometry" />
        </mxCell>
        <mxCell id="Dw3AAeXeD5o4Yu95Zc_J-5" value="Storage Files" style="shape=cylinder3;whiteSpace=wrap;html=1;boundedLbl=1;backgroundOutline=1;size=15;" vertex="1" parent="1">
          <mxGeometry x="140" y="80" width="60" height="80" as="geometry" />
        </mxCell>
        <mxCell id="Dw3AAeXeD5o4Yu95Zc_J-11" value="Website For User Management" style="swimlane;whiteSpace=wrap;html=1;" vertex="1" parent="1">
          <mxGeometry x="480" y="360" width="200" height="200" as="geometry" />
        </mxCell>
        <mxCell id="Dw3AAeXeD5o4Yu95Zc_J-12" style="edgeStyle=orthogonalEdgeStyle;rounded=0;orthogonalLoop=1;jettySize=auto;html=1;entryX=1;entryY=0.167;entryDx=0;entryDy=0;entryPerimeter=0;startArrow=classic;startFill=1;" edge="1" parent="1" source="Dw3AAeXeD5o4Yu95Zc_J-11" target="Dw3AAeXeD5o4Yu95Zc_J-1">
          <mxGeometry relative="1" as="geometry" />
        </mxCell>
        <mxCell id="Dw3AAeXeD5o4Yu95Zc_J-17" style="edgeStyle=orthogonalEdgeStyle;rounded=0;orthogonalLoop=1;jettySize=auto;html=1;" edge="1" parent="1" source="Dw3AAeXeD5o4Yu95Zc_J-13" target="Dw3AAeXeD5o4Yu95Zc_J-5">
          <mxGeometry relative="1" as="geometry">
            <Array as="points">
              <mxPoint x="590" y="240" />
              <mxPoint x="240" y="240" />
              <mxPoint x="240" y="120" />
            </Array>
          </mxGeometry>
        </mxCell>
        <mxCell id="Dw3AAeXeD5o4Yu95Zc_J-13" value="User Input Form" style="swimlane;whiteSpace=wrap;html=1;" vertex="1" parent="1">
          <mxGeometry x="490" y="10" width="200" height="200" as="geometry" />
        </mxCell>
        <mxCell id="Dw3AAeXeD5o4Yu95Zc_J-15" style="edgeStyle=orthogonalEdgeStyle;rounded=0;orthogonalLoop=1;jettySize=auto;html=1;" edge="1" parent="1" source="Dw3AAeXeD5o4Yu95Zc_J-14" target="Dw3AAeXeD5o4Yu95Zc_J-5">
          <mxGeometry relative="1" as="geometry" />
        </mxCell>
        <mxCell id="Dw3AAeXeD5o4Yu95Zc_J-14" value="Comapny Input Form" style="swimlane;whiteSpace=wrap;html=1;" vertex="1" parent="1">
          <mxGeometry x="270" y="10" width="200" height="200" as="geometry" />
        </mxCell>
        <mxCell id="Dw3AAeXeD5o4Yu95Zc_J-18" value="Companies Google Sheet Signups" style="swimlane;fontStyle=0;childLayout=stackLayout;horizontal=1;startSize=30;horizontalStack=0;resizeParent=1;resizeParentMax=0;resizeLast=0;collapsible=1;marginBottom=0;whiteSpace=wrap;html=1;" vertex="1" parent="1">
          <mxGeometry x="10" y="400" width="140" height="90" as="geometry" />
        </mxCell>
        <mxCell id="Dw3AAeXeD5o4Yu95Zc_J-19" value="Names&lt;span style=&quot;white-space: pre;&quot;&gt;&#x9;&lt;/span&gt;" style="text;strokeColor=none;fillColor=none;align=left;verticalAlign=middle;spacingLeft=4;spacingRight=4;overflow=hidden;points=[[0,0.5],[1,0.5]];portConstraint=eastwest;rotatable=0;whiteSpace=wrap;html=1;" vertex="1" parent="Dw3AAeXeD5o4Yu95Zc_J-18">
          <mxGeometry y="30" width="140" height="30" as="geometry" />
        </mxCell>
        <mxCell id="Dw3AAeXeD5o4Yu95Zc_J-20" value="UserFiles" style="text;strokeColor=none;fillColor=none;align=left;verticalAlign=middle;spacingLeft=4;spacingRight=4;overflow=hidden;points=[[0,0.5],[1,0.5]];portConstraint=eastwest;rotatable=0;whiteSpace=wrap;html=1;" vertex="1" parent="Dw3AAeXeD5o4Yu95Zc_J-18">
          <mxGeometry y="60" width="140" height="30" as="geometry" />
        </mxCell>
      </root>
    </mxGraphModel>
  </diagram>
</mxfile>
